<svg width="1200" height="720" viewBox="0 0 1200 720" fill="none" xmlns="http://www.w3.org/2000/svg">
  <defs>
    <linearGradient id="bg3" x1="80" y1="40" x2="1120" y2="760" gradientUnits="userSpaceOnUse">
      <stop stop-color="#0D1C38" />
      <stop offset="1" stop-color="#0A1124" />
    </linearGradient>
    <linearGradient id="accent3" x1="200" y1="200" x2="1000" y2="520" gradientUnits="userSpaceOnUse">
      <stop stop-color="#4D72EF" stop-opacity="0.9" />
      <stop offset="1" stop-color="#6BC0FF" stop-opacity="0.7" />
    </linearGradient>
  </defs>
  <rect width="1200" height="720" rx="32" fill="url(#bg3)" />
  <rect x="120" y="120" width="960" height="480" rx="28" fill="#FFFFFF" fill-opacity="0.05" stroke="#A5B6E8" stroke-opacity="0.24" stroke-width="2" />
  <rect x="180" y="180" width="520" height="340" rx="24" fill="#FFFFFF" fill-opacity="0.07" />
  <rect x="740" y="180" width="220" height="120" rx="20" fill="url(#accent3)" />
  <rect x="740" y="330" width="220" height="70" rx="16" fill="#FFFFFF" fill-opacity="0.09" />
  <rect x="740" y="420" width="220" height="70" rx="16" fill="#FFFFFF" fill-opacity="0.09" />
  <rect x="210" y="210" width="200" height="18" rx="7" fill="#6DA6FF" />
  <rect x="210" y="245" width="180" height="14" rx="6" fill="#FFFFFF" fill-opacity="0.5" />
  <rect x="210" y="275" width="180" height="14" rx="6" fill="#FFFFFF" fill-opacity="0.35" />
  <rect x="210" y="305" width="180" height="14" rx="6" fill="#FFFFFF" fill-opacity="0.35" />
  <rect x="210" y="360" width="240" height="18" rx="7" fill="#6DA6FF" fill-opacity="0.9" />
  <rect x="210" y="400" width="200" height="14" rx="6" fill="#FFFFFF" fill-opacity="0.5" />
  <rect x="210" y="430" width="200" height="14" rx="6" fill="#FFFFFF" fill-opacity="0.35" />
</svg>
