<svg width="1200" height="720" viewBox="0 0 1200 720" fill="none" xmlns="http://www.w3.org/2000/svg">
  <defs>
    <linearGradient id="bg2" x1="0" y1="0" x2="1200" y2="720" gradientUnits="userSpaceOnUse">
      <stop stop-color="#0B1933" />
      <stop offset="1" stop-color="#0A1024" />
    </linearGradient>
    <linearGradient id="card2" x1="280" y1="140" x2="1000" y2="520" gradientUnits="userSpaceOnUse">
      <stop stop-color="#5DA8FF" stop-opacity="0.55" />
      <stop offset="1" stop-color="#3055D6" stop-opacity="0.75" />
    </linearGradient>
  </defs>
  <rect width="1200" height="720" rx="32" fill="url(#bg2)" />
  <rect x="120" y="120" width="960" height="480" rx="28" fill="#FFFFFF" fill-opacity="0.05" stroke="#8FA5E0" stroke-opacity="0.25" stroke-width="2" />
  <rect x="220" y="180" width="340" height="90" rx="18" fill="#FFFFFF" fill-opacity="0.08" />
  <rect x="220" y="300" width="340" height="210" rx="20" fill="#FFFFFF" fill-opacity="0.08" />
  <rect x="600" y="160" width="320" height="220" rx="22" fill="url(#card2)" />
  <rect x="600" y="410" width="320" height="140" rx="20" fill="#FFFFFF" fill-opacity="0.08" stroke="#FFFFFF" stroke-opacity="0.18" />
  <circle cx="290" cy="225" r="10" fill="#5DA8FF" />
  <circle cx="325" cy="225" r="10" fill="#5DA8FF" fill-opacity="0.8" />
  <circle cx="360" cy="225" r="10" fill="#5DA8FF" fill-opacity="0.6" />
  <rect x="240" y="320" width="300" height="22" rx="8" fill="#5DA8FF" fill-opacity="0.7" />
  <rect x="240" y="360" width="260" height="18" rx="7" fill="#FFFFFF" fill-opacity="0.5" />
  <rect x="240" y="400" width="260" height="18" rx="7" fill="#FFFFFF" fill-opacity="0.35" />
  <rect x="240" y="440" width="200" height="18" rx="7" fill="#FFFFFF" fill-opacity="0.35" />
</svg>
