<svg width="1200" height="720" viewBox="0 0 1200 720" fill="none" xmlns="http://www.w3.org/2000/svg">
  <defs>
    <linearGradient id="bg1" x1="120" y1="0" x2="920" y2="820" gradientUnits="userSpaceOnUse">
      <stop stop-color="#17335F" />
      <stop offset="1" stop-color="#0E1E3A" />
    </linearGradient>
    <linearGradient id="card1" x1="160" y1="120" x2="960" y2="580" gradientUnits="userSpaceOnUse">
      <stop stop-color="#4D72EF" stop-opacity="0.9" />
      <stop offset="1" stop-color="#6DA6FF" stop-opacity="0.65" />
    </linearGradient>
  </defs>
  <rect width="1200" height="720" rx="32" fill="url(#bg1)" />
  <rect x="120" y="120" width="960" height="480" rx="28" fill="#FFFFFF" fill-opacity="0.06" stroke="#9FB6FF" stroke-opacity="0.25" stroke-width="2" />
  <rect x="170" y="170" width="420" height="120" rx="18" fill="url(#card1)" opacity="0.9" />
  <rect x="170" y="320" width="420" height="80" rx="16" fill="#FFFFFF" fill-opacity="0.08" stroke="#FFFFFF" stroke-opacity="0.2" />
  <rect x="170" y="420" width="420" height="80" rx="16" fill="#FFFFFF" fill-opacity="0.08" stroke="#FFFFFF" stroke-opacity="0.2" />
  <rect x="620" y="180" width="360" height="300" rx="22" fill="#FFFFFF" fill-opacity="0.1" stroke="#9FB6FF" stroke-opacity="0.3" stroke-width="2" />
  <circle cx="660" cy="220" r="12" fill="#5DA8FF" />
  <circle cx="700" cy="220" r="12" fill="#5DA8FF" fill-opacity="0.8" />
  <circle cx="740" cy="220" r="12" fill="#5DA8FF" fill-opacity="0.6" />
  <rect x="650" y="260" width="290" height="70" rx="14" fill="#FFFFFF" fill-opacity="0.08" />
  <rect x="650" y="350" width="290" height="70" rx="14" fill="#FFFFFF" fill-opacity="0.08" />
  <rect x="650" y="440" width="290" height="22" rx="8" fill="#5DA8FF" fill-opacity="0.7" />
</svg>
